<?xml version="1.0" encoding="utf-8"?>
<!DOCTYPE svg PUBLIC "-//W3C//DTD SVG 1.0//EN" "http://www.w3.org/TR/2001/REC-SVG-20010904/DTD/svg10.dtd">
<svg version="1.0" xmlns="http://www.w3.org/2000/svg" width="500px" height="500px" viewBox="0 0 500 500" preserveAspectRatio="xMidYMid meet">
 <g fill="#ffffff">
  <path d="M0 250 l0 -250 250 0 250 0 0 250 0 250 -250 0 -250 0 0 -250z m228.55 214.70 c8.75 -2.55 15.55 -11.65 14.80 -19.85 -0.40 -4.40 -3.10 -9.55 -6.85 -13 -2.40 -2.25 -3 -3.10 -3 -4.30 l0 -1.55 24.40 0 c13.40 0 54.20 0.15 90.75 0.35 l66.35 0.30 0 1.95 c0 1.05 -0.20 1.90 -0.40 1.90 -1.05 0 -5.30 5.10 -6.70 7.95 -3.60 7.60 -1.70 15.55 5.40 22 6.40 5.85 15.05 6.45 22.70 1.55 3.05 -1.95 6.55 -6.50 8 -10.40 2.40 -6.25 0.30 -13.80 -5.25 -19.05 -2.25 -2.10 -2.75 -2.90 -2.75 -4.20 l0 -1.65 8.90 0 c7.15 0 9.20 -0.15 10.65 -0.80 2.30 -1.10 5.15 -4.25 5.95 -6.60 0.55 -1.65 0.45 -2.10 -0.75 -4.60 -1.65 -3.40 -4 -5.05 -8.05 -5.70 -1.80 -0.30 -29.30 -0.50 -69.45 -0.55 -36.55 -0.05 -87.30 -0.20 -112.75 -0.40 l-46.25 -0.30 -2.35 -1.15 c-2.15 -1.05 -2.40 -1.35 -2.40 -2.90 0 -1.65 0.05 -1.70 1.90 -1.70 1 0.05 3.20 0.35 4.85 0.75 8.35 2.05 18.80 -0.05 26.60 -5.30 1.30 -0.85 12.55 -11.70 24.90 -24 18.70 -18.65 22.75 -22.45 23.90 -22.45 1.25 0 17.10 -1.25 114.40 -8.95 27.10 -2.15 31 -2.55 32.80 -3.45 2.80 -1.45 4.95 -4.05 5.60 -6.90 0.30 -1.35 3.25 -24.95 6.55 -52.45 3.30 -27.50 6.50 -53.65 7.05 -58.10 1 -8 1 -8.15 0.05 -10.30 -1 -2.30 -3.45 -4.65 -5.85 -5.60 -1.65 -0.70 -6.05 -0.85 -53.50 -2.05 l-31 -0.75 -80 -79.90 c-87.75 -87.65 -82.05 -82.35 -91.55 -85.50 l-4.60 -1.55 -70.35 0 c-70.05 0 -70.40 0 -73.95 1.05 -6.35 1.90 -11.10 4.70 -15.80 9.45 -4.80 4.80 -7.40 8.90 -9.40 14.75 l-1.35 4 0 71 0 71 1.55 4.35 c0.85 2.40 2.30 5.70 3.25 7.25 1.30 2.20 21.05 22.30 83.85 85.20 81.25 81.35 82.20 82.35 81.95 84 -0.15 0.95 -0.60 3.45 -1 5.65 -1.45 7.65 0.95 14.70 7.40 21.65 3.10 3.35 8.95 7.60 11.65 8.40 0.85 0.25 1.10 0.70 1.10 1.95 0 1.45 -0.20 1.70 -1.90 2.20 -1 0.30 -3.35 1.55 -5.10 2.75 -3.80 2.50 -7.05 6.90 -8.30 11.25 -2.10 7.15 1.40 16 8.05 20.45 5.35 3.50 10.05 4.40 15.30 2.85z"/>
  <path d="M218.75 459.45 c-2.65 -0.80 -6.05 -3.70 -7.30 -6.30 -1.70 -3.40 -1.95 -10.10 -0.55 -13.25 2.35 -5.40 6.65 -7.90 13.25 -7.85 4.35 0 7.20 1.05 9.85 3.60 3.05 3 3.70 4.90 3.75 10.35 0 3.90 -0.20 5.10 -1.05 6.75 -2.65 4.85 -6.85 7.25 -12.70 7.20 -2.05 0 -4.40 -0.25 -5.25 -0.50z m8.45 -10.15 c2 -1.85 2.15 -2.65 1.10 -4.75 -0.95 -1.75 -2.85 -3.05 -4.60 -3.05 -1.75 0 -4.70 2.95 -4.70 4.75 0 0.85 0.60 1.95 1.70 3.05 2.25 2.25 4.10 2.25 6.50 0z"/>
  <path d="M420.15 459.35 c-5 -1.85 -8.15 -6.35 -8.55 -12.10 -0.30 -5.10 0.80 -8.55 3.65 -11.40 2.70 -2.75 5.70 -3.85 10.30 -3.85 6.10 0 10.25 2.35 12.80 7.15 1.25 2.45 1.50 9.10 0.40 12.40 -1.10 3.30 -4.30 6.55 -7.60 7.65 -2.70 0.95 -8.65 1 -11 0.15z m8.65 -10.05 c1.10 -1.10 1.70 -2.20 1.70 -3.05 0 -1.80 -2.95 -4.75 -4.70 -4.75 -2.80 0 -5.65 3.25 -5 5.75 0.45 1.75 2.95 3.75 4.80 3.75 1.05 0 2 -0.50 3.20 -1.70z"/>
  <path d="M322.50 330.35 c0 -1.35 0.60 -2.20 3.40 -5 2.75 -2.75 3.65 -3.35 5 -3.35 l1.60 0 0 4.70 0 4.65 -2.30 0.35 c-1.30 0.15 -3.55 0.30 -5 0.30 l-2.70 0 0 -1.65z"/>
  <path d="M337 322.40 l0 -8.10 8.65 -8.65 8.65 -8.65 10.60 0 10.60 0 0 15.50 c0 8.55 -0.10 15.50 -0.20 15.50 -0.10 0 -7.25 0.55 -15.85 1.25 -8.65 0.70 -17.20 1.25 -19.05 1.25 l-3.40 0 0 -8.10z"/>
  <path d="M380 312 l0 -15 19.25 0 19.25 0 0 13.75 c0 7.55 -0.10 13.75 -0.20 13.75 -0.10 0 -7.25 0.55 -15.85 1.25 -8.65 0.70 -17.20 1.25 -19.05 1.25 l-3.40 0 0 -15z"/>
  <path d="M423 310.50 l0 -13.50 11.50 0 11.50 0 0 2.65 c0 2.65 -2.30 22.30 -2.65 22.65 -0.20 0.25 -16.40 1.70 -18.70 1.70 l-1.65 0 0 -13.50z"/>
  <path d="M362 291.15 c0 -1.70 0.45 -2.35 5.10 -7 4.45 -4.45 5.35 -5.15 6.80 -5.15 l1.65 0 -0.15 6.90 -0.15 6.85 -6.60 0.15 -6.65 0.15 0 -1.90z"/>
  <path d="M380 282.20 l0 -10.85 5.15 -5.30 c2.85 -2.90 5.90 -6.25 6.80 -7.40 l1.65 -2.15 12.45 0 12.45 0 -0.10 18.15 -0.15 18.10 -19.10 0.15 -19.15 0.10 0 -10.80z"/>
  <path d="M423 274.75 l0 -18.25 14 0 14 0 0 2.30 c0 2.15 -3.20 30 -3.80 32.80 l-0.25 1.35 -12 0.05 -11.95 0 0 -18.25z"/>
  <path d="M398.60 252.15 c-1.65 -0.20 -1.70 -0.30 -1.45 -2.05 0.10 -1 0.60 -3.40 1.05 -5.35 0.90 -4.10 1 -8.40 0.25 -12.50 -0.60 -3.40 -3.05 -9.80 -4.50 -11.80 -0.50 -0.75 -0.95 -2.05 -0.95 -2.90 l0 -1.55 6.40 0 c3.50 0 9.20 0.15 12.75 0.35 l6.35 0.30 0 17.95 0 17.90 -9.10 -0.10 c-5.05 0 -9.90 -0.15 -10.80 -0.25z"/>
  <path d="M423.65 252.15 c-0.50 -0.20 -0.65 -4.25 -0.65 -17.95 l0 -17.75 16.15 0.35 c8.85 0.15 16.30 0.50 16.60 0.75 0.70 0.70 -3.45 33.95 -4.30 34.50 -0.75 0.45 -26.75 0.55 -27.80 0.10z"/>
  <path d="M86.60 127.30 c-9.35 -1.95 -17.75 -9.60 -20.65 -18.75 -1.30 -4.20 -1.80 -12.40 -1 -16.65 1.35 -6.85 6.30 -14.20 12.25 -18.15 1.40 -0.90 4.30 -2.25 6.40 -2.95 3.35 -1.15 4.65 -1.30 10.50 -1.30 5.70 0 7.15 0.20 10 1.20 5 1.75 7.80 3.55 11.30 7.20 8.60 9 10.55 23.45 4.60 35.05 l-1.10 2.20 -4.70 -0.35 c-4.25 -0.35 -5 -0.25 -7 0.70 -3.45 1.70 -4.90 3.95 -5.10 8.05 -0.15 2.55 -0.40 3.45 -1.05 3.70 -1.60 0.70 -11.30 0.70 -14.45 0.05z"/>
 </g>
 <g fill="#004aad">
  <path d="M232.40 406.65 c0.60 -0.10 1.60 -0.10 2.25 0 0.60 0.10 0.10 0.20 -1.15 0.20 -1.25 0 -1.75 -0.10 -1.10 -0.20z"/>
  <path d="M221.25 405.30 c-2.75 -0.80 -3.50 -2.45 -3.50 -7.80 0 -3.65 0.20 -4.65 1.45 -7.20 0.80 -1.60 2.35 -3.85 3.50 -5 1.70 -1.70 24.55 -19.75 36.30 -28.70 l3.25 -2.45 8.50 -0.60 c4.70 -0.35 10.55 -0.85 13 -1.05 7.85 -0.80 18.90 -1.20 18.70 -0.70 -0.55 1.15 -46 45.75 -48.10 47.15 -3.55 2.40 -8.40 4.45 -12.50 5.35 -4.65 1 -12.75 0.95 -17.10 -0.05 -1.85 -0.40 -3.50 -0.70 -3.60 -0.55 -0.10 0.10 0.75 0.65 1.95 1.25 2.35 1.15 1.40 1.35 -1.85 0.35z"/>
  <path d="M199.65 387.90 c0.15 -0.35 -36.05 -37.05 -81.85 -82.90 -62.70 -62.80 -82.50 -82.95 -83.75 -85.15 -0.95 -1.55 -2.40 -4.85 -3.25 -7.25 l-1.55 -4.35 0 -72.50 0 -72.50 1.35 -4 c2 -5.85 4.60 -9.95 9.40 -14.75 4.70 -4.75 9.45 -7.55 15.80 -9.45 3.55 -1.05 3.90 -1.05 75.45 -1.05 l71.85 0 4.60 1.55 c9.50 3.15 3.80 -2.15 91.55 85.50 44 44 80.30 79.95 80.65 79.95 0.30 0 0.60 0.35 0.60 0.75 0 0.90 1.10 0.90 -21.75 0.25 -9.60 -0.25 -35.70 -0.95 -58 -1.50 -67.55 -1.70 -98.95 -2.50 -99 -2.65 -0.05 -0.05 -0.80 -1.90 -1.65 -4.10 -0.85 -2.20 -4.60 -11.85 -8.35 -21.50 -3.75 -9.60 -9 -23 -11.60 -29.75 -2.60 -6.70 -5.35 -13.05 -6.05 -14.05 -2.65 -3.65 -2.40 -3.60 -28.85 -8.15 -13.50 -2.30 -25.55 -4.35 -26.85 -4.55 -1.90 -0.30 -2.40 -0.55 -2.40 -1.30 0 -0.55 0.35 -0.95 0.75 -0.95 1.45 0 4.45 -7.45 5 -12.50 0.45 -4 -0.85 -10.55 -2.95 -14.75 -2.05 -4.15 -6.90 -9.45 -10.45 -11.50 -4.70 -2.70 -8.65 -3.75 -14.25 -3.75 -8.65 0 -14.95 2.70 -20.75 9 -5.10 5.50 -7.80 13 -7.20 20.20 0.65 7.40 3.65 13.75 8.95 18.85 5.10 4.90 14.40 8.05 21.20 7.20 3.55 -0.45 4.20 -0.65 4.20 -1.55 0 -1.35 1.55 -0.70 1.85 0.80 0.35 1.90 3.70 5.25 5.80 5.95 0.90 0.30 6.20 1.30 11.85 2.25 5.65 0.95 15.65 2.70 22.25 3.80 6.60 1.15 13.55 2.35 15.40 2.65 l3.45 0.60 1.90 4.75 c1.05 2.60 2.45 6.20 3.15 8 1.15 2.95 4.05 10.45 8.60 22 0.90 2.35 2.50 6.40 3.50 9 1 2.60 3.30 8.45 5.10 13 1.80 4.55 4.50 11.40 5.95 15.25 1.50 3.85 4.65 11.85 6.95 17.75 2.30 5.90 5.70 14.60 7.50 19.25 1.85 4.70 4.10 10.40 5 12.75 0.90 2.35 3.15 8.10 5 12.75 1.80 4.70 5.40 13.90 8 20.50 2.60 6.60 6.60 16.85 8.90 22.75 2.30 5.90 5.70 14.60 7.55 19.35 2.10 5.25 3.30 9.10 3.20 9.95 -0.10 1.10 -1.20 2.25 -4.95 5.20 -28.20 22.05 -29.20 22.95 -33.30 31.55 -1.35 2.80 -2.15 3.95 -2.80 3.95 -0.55 0 -0.85 -0.25 -0.70 -0.60z"/>
  <path d="M254.35 328.85 l-3.35 -8.70 0 -11.60 0 -11.55 19.25 0 19.25 0 0 18.90 0 18.90 -13.60 1.10 c-7.50 0.65 -14.65 1.25 -15.90 1.40 l-2.25 0.30 -3.40 -8.75z"/>
  <path d="M294 315.50 l0 -18.50 19.25 0 19.25 0 0 13.95 c0 11.75 -0.10 14 -0.75 14.55 -0.65 0.55 -0.75 0.40 -0.75 -0.80 0 -1.35 -0.15 -1.30 -3.50 2.05 -3.45 3.45 -3.50 3.50 -2.20 3.75 1.20 0.20 1.25 0.30 0.55 0.90 -0.85 0.70 -21.20 2.60 -28.20 2.60 l-3.65 0 0 -18.50z"/>
  <path d="M337 307.25 l0 -10.25 10.25 0 c8.40 0 10.25 0.10 10.25 0.70 0 0.40 -0.50 0.80 -1.10 0.95 -1.50 0.40 -17.90 16.90 -17.90 18 0 0.45 -0.35 0.85 -0.75 0.85 -0.65 0 -0.75 -1.45 -0.75 -10.25z"/>
  <path d="M240.65 292.50 c-0.65 -0.25 -1.15 -0.70 -1.15 -1 0 -0.50 -8.95 -23.60 -11.20 -29.10 -0.45 -1.05 -0.80 -2.80 -0.80 -3.90 l0 -2 9.50 0 9.50 0 0 18.25 0 18.25 -2.35 -0.05 c-1.35 0 -2.90 -0.20 -3.50 -0.45z"/>
  <path d="M251.25 292.60 c-0.15 -0.15 -0.25 -8.35 -0.25 -18.20 l0 -17.90 19.25 0 19.25 0 0 18.15 0 18.15 -19 0 c-10.45 0.05 -19.10 -0.05 -19.25 -0.20z"/>
  <path d="M302.40 292.60 l-8.40 -0.10 0 -18 0 -18 19.25 0 19.25 0 0 18.25 0 18.25 -10.85 -0.10 c-6 -0.10 -14.65 -0.20 -19.25 -0.30z"/>
  <path d="M337.35 292.65 c-0.20 -0.15 -0.35 -8.40 -0.35 -18.25 l0 -17.90 19.25 0 19.25 0 0 12.70 c0 10.65 -0.10 12.80 -0.75 13.30 -0.65 0.55 -0.75 0.40 -0.75 -0.80 0 -1.35 -0.35 -1.05 -5.25 3.80 -2.90 2.90 -5.25 5.45 -5.25 5.65 0 0.25 0.55 0.35 1.25 0.20 1.25 -0.20 1.25 -0.20 0.45 0.70 -0.80 0.90 -1.80 0.95 -14.20 0.95 -7.35 0 -13.50 -0.15 -13.65 -0.35z"/>
  <path d="M380 265.50 l0 -9 8.25 0 c7 0 8.25 0.10 8.25 0.75 0 0.40 -0.30 0.75 -0.70 0.75 -0.40 0 -1.45 0.95 -2.35 2.15 -0.90 1.15 -3.95 4.50 -6.80 7.40 -2.85 2.90 -5.15 5.65 -5.15 6.15 0 0.45 -0.35 0.80 -0.75 0.80 -0.65 0 -0.75 -1.35 -0.75 -9z"/>
  <path d="M224.05 251.40 c-10.70 -27.15 -14.05 -36.30 -14.05 -38.20 l0 -2.15 5.90 0.25 c3.20 0.10 11.40 0.35 18.25 0.50 l12.35 0.30 0 20.20 0 20.20 -11 0 c-10.95 0 -11.05 0 -11.45 -1.10z"/>
  <path d="M251.65 252.15 c-0.50 -0.20 -0.65 -4.70 -0.65 -20.20 l0 -19.95 6.65 0.30 c3.60 0.15 12.25 0.45 19.10 0.65 l12.50 0.30 0.15 19.65 0.10 19.60 -18.60 -0.05 c-10.25 0 -18.95 -0.15 -19.25 -0.30z"/>
  <path d="M294 232.80 l0 -19.70 7.15 0.25 c3.90 0.15 12.50 0.40 19.10 0.55 l12 0.35 0.15 19.15 0.10 19.10 -19.25 0 -19.25 0 0 -19.70z"/>
  <path d="M337.35 252.15 c-0.20 -0.15 -0.35 -8.75 -0.35 -19 l0 -18.70 18.65 0.30 c10.20 0.20 18.90 0.40 19.25 0.50 0.45 0.20 0.60 4.35 0.60 18.75 l0 18.50 -18.90 0 c-10.40 0 -19.10 -0.15 -19.25 -0.35z"/>
  <path d="M380 233.90 l0 -18.55 7.80 0.30 c6.20 0.20 8 0.45 8.60 1.05 0.75 0.75 0.70 0.80 -0.60 0.80 l-1.35 0 1 1.40 c1.55 2.20 3.95 8.65 4.60 12.40 0.70 4.15 0.35 13.55 -0.70 16.85 -0.70 2.25 -0.70 2.35 0.20 2.35 1.05 0 1.10 0.05 0.65 1.20 -0.25 0.70 -1.65 0.80 -10.25 0.80 l-9.95 0 0 -18.60z"/>
 </g>
 <g fill="#231f1f">
  <path d="M217.40 466.20 c-3.90 -1.20 -8.40 -4.55 -10.75 -8.10 -7.85 -11.70 -3 -27.05 10.05 -32.05 2.30 -0.85 2.40 -0.95 1.25 -1.30 -2.75 -0.80 -8.55 -5 -11.70 -8.40 -8.10 -8.70 -10.15 -19.15 -6 -30.20 3.30 -8.75 6.85 -12.80 21.05 -23.95 4.85 -3.85 11 -8.65 13.65 -10.75 2.70 -2.15 4.75 -4.10 4.65 -4.50 -0.10 -0.40 -1.55 -4.20 -3.20 -8.45 -1.70 -4.25 -4.95 -12.60 -7.25 -18.50 -2.30 -5.90 -6.30 -16.15 -8.90 -22.75 -2.60 -6.60 -6.20 -15.80 -8 -20.50 -1.85 -4.65 -4.10 -10.40 -5 -12.75 -0.90 -2.35 -3.15 -8.05 -5 -12.75 -1.80 -4.65 -5.20 -13.35 -7.50 -19.25 -2.30 -5.90 -5.45 -13.90 -6.95 -17.75 -1.45 -3.85 -4.15 -10.70 -5.95 -15.25 -1.80 -4.55 -4.10 -10.40 -5.10 -13 -1 -2.60 -2.60 -6.65 -3.50 -9 -4.55 -11.55 -7.45 -19.05 -8.60 -22 -0.70 -1.80 -2.10 -5.40 -3.15 -8 l-1.90 -4.75 -3.45 -0.60 c-1.85 -0.30 -8.80 -1.50 -15.40 -2.65 -6.60 -1.10 -16.60 -2.85 -22.25 -3.80 -5.65 -0.95 -10.95 -1.95 -11.85 -2.25 -2.65 -0.85 -5.55 -4.15 -5.95 -6.75 -0.90 -6.10 0.70 -10.10 4.95 -12.15 2.85 -1.40 6.20 -1.35 14.75 0.20 3.75 0.65 16.75 2.90 28.85 5 23.75 4.10 23.75 4.10 26.35 7.70 0.70 1 3.45 7.35 6.05 14.05 2.60 6.75 7.85 20.15 11.60 29.75 3.75 9.65 7.50 19.30 8.35 21.50 0.85 2.20 1.60 4.05 1.65 4.10 0.05 0.15 69.40 1.95 188.50 4.90 28.05 0.70 55.65 1.45 61.35 1.65 l10.35 0.35 2.15 1.55 c2.55 1.80 4.25 4.15 4.70 6.65 0.20 1 0.10 3.95 -0.20 6.55 -0.35 2.60 -3.55 29.05 -7.10 58.75 -3.60 29.70 -6.75 55.10 -7.05 56.45 -0.65 2.85 -2.80 5.45 -5.60 6.90 -1.80 0.90 -5.70 1.30 -32.80 3.45 -16.95 1.35 -49.35 3.90 -72.05 5.70 -22.70 1.80 -45.50 3.60 -50.75 4 -5.20 0.40 -12.30 1 -15.75 1.25 -3.45 0.30 -8.25 0.65 -10.75 0.80 -5.20 0.35 -2.25 -1.55 -24.50 15.90 -7.70 6.05 -15.30 12 -16.95 13.25 -7.20 5.45 -9.85 14.90 -5.45 19.30 2.90 2.85 -3.55 2.70 120.15 3.10 l113.80 0.40 2.45 1.30 c4.35 2.20 6.70 7.75 5.25 12.20 -0.35 1.05 -1.40 2.75 -2.40 3.85 -2.95 3.25 -4.15 3.55 -14.20 3.60 -4.90 0.05 -8.90 0.10 -8.90 0.15 0 0.05 1.25 1.25 2.75 2.70 6.35 6 8.25 15.40 4.75 23.30 -3.65 8.30 -11.35 13 -20.50 12.50 -5.55 -0.25 -9.20 -1.70 -12.70 -4.90 -5.45 -4.95 -7.55 -10.10 -7.20 -17.40 0.30 -6.25 2.85 -11.20 7.70 -15 0.75 -0.60 1.25 -1.15 1.15 -1.25 -0.10 -0.10 -40.35 -0.35 -89.40 -0.55 l-89.25 -0.40 3.10 2.90 c4.50 4.15 6.70 8.80 7 14.75 0.15 3.25 0 5.10 -0.65 7.05 -2.20 6.80 -7.65 12.20 -14.20 14.15 -3.35 1 -9.50 1 -12.65 0z m11.35 -8.90 c4.95 -2.30 7.50 -6.15 7.45 -11.30 0 -3.85 -1 -6.20 -3.70 -8.85 -6.45 -6.20 -16.40 -4.10 -20.15 4.25 -2.05 4.70 -0.20 11.25 4.10 14.40 4.05 2.95 8.10 3.50 12.30 1.50z m200.90 0.40 c1.35 -0.45 3.30 -1.70 4.55 -2.90 6.40 -6.25 4.25 -17.20 -4 -20.30 -5.10 -1.90 -9.70 -0.90 -13.45 2.85 -5.25 5.25 -4.65 13.95 1.30 18.40 3.75 2.80 7.35 3.40 11.60 1.95z m-155.25 -123.35 l13.60 -1.05 0 -17.40 0 -17.40 -17.75 0 -17.75 0 0 10.05 0 10.10 3.35 8.70 c2.65 6.85 3.50 8.60 4.15 8.35 0.40 -0.15 6.90 -0.75 14.40 -1.35z m37.90 -2.85 c7.15 -0.55 14.25 -1.15 15.85 -1.30 l2.85 -0.30 0 -15.70 0 -15.70 -17.75 0 -17.75 0 0 17 0 17 1.95 0 c1.05 0 7.75 -0.45 14.85 -1z m45.65 -3.75 c8.60 -0.70 15.75 -1.25 15.85 -1.25 0.10 0 0.20 -6.30 0.20 -14 l0 -14 -17.75 0 -17.75 0 0 15.25 0 15.25 1.90 0 c1 0 8.90 -0.55 17.55 -1.25z m43 -3.50 c8.60 -0.70 15.75 -1.25 15.85 -1.25 0.10 0 0.20 -5.50 0.20 -12.25 l0 -12.25 -17.75 0 -17.75 0 0 13.50 0 13.50 1.90 0 c1 0 8.90 -0.55 17.55 -1.25z m35.05 -2.80 c3.15 -0.25 5.80 -0.55 5.90 -0.65 0.20 -0.20 2.60 -19.65 2.60 -21.15 l0 -1.15 -10 0 -10 0 0 12 0 12.05 2.90 -0.30 c1.55 -0.15 5.45 -0.50 8.60 -0.80z m-191 -46.70 l0 -16.75 -8 0 c-5.15 0 -8 0.20 -8 0.50 0 0.30 0.35 1.35 0.80 2.40 2.25 5.50 11.20 28.60 11.20 29.10 0 0.60 1.75 1.40 3.15 1.45 0.80 0.05 0.85 -1.05 0.85 -16.70z m43 -0.10 l0 -16.65 -17.75 0 -17.75 0 0 16.40 c0 9.05 0.10 16.55 0.20 16.65 0.10 0.10 8.10 0.20 17.75 0.20 l17.55 0 0 -16.60z m43 0.05 l0 -16.70 -17.75 0 -17.75 0 0 16.50 0 16.50 8.40 0.10 c4.60 0.10 12.55 0.20 17.75 0.20 l9.35 0.10 0 -16.70z m42.90 -0.05 l0.10 -16.65 -17.75 0 -17.75 0 0 16.40 c0 9.05 0.15 16.55 0.30 16.70 0.15 0.15 8.05 0.25 17.60 0.20 l17.35 -0.05 0.15 -16.60z m43 0 l0.10 -16.65 -17.75 0 -17.75 0 0 16.70 0 16.70 17.65 -0.05 17.60 -0.10 0.15 -16.60z m28.85 15.35 c0.30 -1.55 3.75 -30.15 3.75 -31.20 0 -0.70 -1.55 -0.80 -12.50 -0.80 l-12.50 0 0 16.65 0 16.70 10.50 -0.05 10.45 0 0.30 -1.30z m-200.75 -57.75 l0 -18.75 -4.35 -0.05 c-2.45 -0.05 -9.95 -0.20 -16.80 -0.40 -8.60 -0.20 -12.35 -0.15 -12.35 0.25 0 0.40 8 21.30 14 36.55 0.45 1.05 0.70 1.10 9.95 1.15 l9.55 0.05 0 -18.80z m42.90 0.65 l-0.15 -18.15 -12.75 -0.35 c-7 -0.15 -14.95 -0.40 -17.60 -0.50 l-4.90 -0.20 0 18.35 c0 14.25 0.15 18.40 0.65 18.60 0.30 0.15 8.30 0.30 17.75 0.30 l17.10 0.05 -0.10 -18.10z m43 0.50 l-0.15 -17.65 -17.65 -0.50 -17.60 -0.50 0 18.15 0 18.10 17.75 0 17.75 0 -0.10 -17.60z m43.10 0.60 c0 -13.20 -0.15 -17.05 -0.60 -17.20 -0.35 -0.15 -8.35 -0.35 -17.75 -0.50 l-17.15 -0.30 0 17.15 c0 9.45 0.15 17.35 0.35 17.50 0.15 0.20 8.15 0.35 17.75 0.35 l17.40 0 0 -17z m43 0.45 l0 -16.35 -8.60 -0.30 c-4.75 -0.15 -12.75 -0.40 -17.75 -0.60 l-9.15 -0.30 0 17.05 0 17.05 17.75 -0.10 17.75 -0.15 0 -16.30z m33.30 15.90 c0.50 -0.45 4.15 -31.05 3.80 -31.40 -0.20 -0.20 -6.95 -0.45 -14.95 -0.65 l-14.65 -0.30 0 16.20 c0 11.10 0.15 16.25 0.55 16.40 0.90 0.30 24.95 0.05 25.25 -0.25z"/>
  <path d="M221.05 452.15 c-0.95 -0.50 -2.20 -1.50 -2.70 -2.25 -1.25 -1.70 -1.35 -5.30 -0.20 -7.10 3.75 -5.70 12.35 -3.20 12.35 3.60 0 2.60 -0.55 3.70 -2.45 5.05 -2.10 1.50 -4.95 1.80 -7 0.70z"/>
  <path d="M422.75 452.30 c-2.25 -1 -3.35 -2.50 -3.60 -5 -0.45 -3.95 1.45 -6.70 5.20 -7.55 5.15 -1.10 9.60 4.50 7.30 9.10 -0.50 1 -1.45 2.25 -2.15 2.75 -1.70 1.20 -4.90 1.55 -6.75 0.70z"/>
 </g>
</svg>